<?xml version="1.0" encoding="UTF-8"?>
<svg width="153px" height="34px" viewBox="0 0 153 34" version="1.1" xmlns="http://www.w3.org/2000/svg" xmlns:xlink="http://www.w3.org/1999/xlink">
    <!-- Generator: Sketch 54.1 (76490) - https://sketchapp.com -->
    <title>Logo</title>
    <desc>Created with Sketch.</desc>
    <g id="Page-1" stroke="none" stroke-width="1" fill-rule="evenodd">
        <g id="Homepage" transform="translate(-33.000000, -34.000000)">
            <g id="HEADER" transform="translate(33.000000, 20.000000)">
                <g id="Logo" transform="translate(0.000000, 14.000000)">
                    <path  d="M0.524,32.2 L0.524,0.2 L5.68974586,0.2 L5.68974586,13.6857143 L12.2643315,0.2 L17.4300773,0.2 L11.2781436,11.9485714 L17.524,32.2 L12.1234475,32.2 L7.7560442,17.9371429 L5.68974586,22.0057143 L5.68974586,32.2 L0.524,32.2 Z M19.524,32.2 L19.524,0.2 L33.524,0.2 L33.524,4.77142857 L24.6573333,4.77142857 L24.6573333,13.2285714 L31.704,13.2285714 L31.704,17.8 L24.6573333,17.8 L24.6573333,27.6285714 L33.524,27.6285714 L33.524,32.2 L19.524,32.2 Z M36.524,32.2 L36.524,0.2 L42.924,0.2 L47.8863188,19.3542857 L47.9790725,19.3542857 L47.9790725,0.2 L52.524,0.2 L52.524,32.2 L47.2834203,32.2 L41.1616812,8.84 L41.0689275,8.84 L41.0689275,32.2 L36.524,32.2 Z M54.524,32.2 L54.524,27.72 L64.0271056,4.77142857 L54.9898385,4.77142857 L54.9898385,0.2 L69.524,0.2 L69.524,4.68 L60.0208944,27.6285714 L69.524,27.6285714 L69.524,32.2 L54.524,32.2 Z M71.524,32.2 L76.6645836,0.2 L83.3834164,0.2 L88.524,32.2 L83.5637878,32.2 L82.661931,25.8457143 L82.661931,25.9371429 L77.0253263,25.9371429 L76.1234695,32.2 L71.524,32.2 Z M77.524,21.2 L82.524,21.2 L80.0492525,5.2 L79.9482424,5.2 L77.524,21.2 Z M91.524,32.2 L91.524,0.2 L98.9779877,0.2 C104.039337,0.2 106.524,2.98857143 106.524,8.10857143 L106.524,11.2628571 C106.524,16.3828571 104.039337,19.1714286 98.9779877,19.1714286 L96.5853497,19.1714286 L96.5853497,32.2 L91.524,32.2 Z M96.524,14.2 L98.9768302,14.2 C100.627774,14.2 101.524,13.455814 101.524,11.1302326 L101.524,7.26976744 C101.524,4.94418605 100.627774,4.2 98.9768302,4.2 L96.524,4.2 L96.524,14.2 Z" id="KENZAP" fill="#ffffff" fill-rule="nonzero"></path>
                    <text id=".cloud" font-family="Poppins-SemiBold, Poppins" font-size="18" font-weight="500" letter-spacing="-0.9333335" fill="#ffffff">
                        <tspan x="102" y="33">.cloud</tspan>
                    </text>
                </g>
            </g>
        </g>
    </g>
</svg>